<?xml version="1.0" encoding="utf-8"?>
<!-- Generator: Adobe Illustrator 17.1.0, SVG Export Plug-In . SVG Version: 6.00 Build 0)  -->
<!DOCTYPE svg PUBLIC "-//W3C//DTD SVG 1.1//EN" "http://www.w3.org/Graphics/SVG/1.1/DTD/svg11.dtd">
<svg version="1.1" id="Layer_1" xmlns="http://www.w3.org/2000/svg" xmlns:xlink="http://www.w3.org/1999/xlink" x="0px" y="0px"
	 viewBox="0 0 1788.776 572.928" enable-background="new 0 0 1788.776 572.928" xml:space="preserve">
<g>
	<path fill="#F8F8F8" d="M1603.985,434.135c-0.452-1.887-0.741-3.339-1.149-4.756c-4.73-16.437-9.715-32.806-14.074-49.341
		c-1.293-4.905-3.154-6.47-8.297-6.468c-470.568,0.129-941.135,0.12-1411.703,0.12c-1.333,0-2.685,0.145-3.995-0.028
		c-3.124-0.412-4.356,0.913-4.943,3.987c-1.773,9.29-3.912,18.51-5.844,27.771c-1.974,9.463-3.871,18.942-5.863,28.716
		C633.624,434.135,1118.482,434.135,1603.985,434.135z M237.927,352.303c16.054,0,31.531-0.258,46.99,0.146
		c5.119,0.134,6.604-1.707,7.65-6.34c13.158-58.3,26.536-116.55,39.832-174.819c0.931-4.081,1.656-8.208,2.56-12.728
		c-19.847,0-38.829,0.125-57.807-0.102c-3.97-0.047-5.849,1.449-7.633,4.769c-19.432,36.156-39.016,72.231-58.58,108.316
		c-0.782,1.443-1.789,2.764-2.692,4.142c-0.418-0.162-0.835-0.324-1.253-0.486c-0.523-38.78-1.047-77.561-1.574-116.632
		c-19.358,0-38.008-0.082-56.654,0.184c-1.255,0.018-3.175,2.49-3.588,4.124c-2.073,8.203-3.69,16.52-5.57,24.774
		c-16.739,73.467-33.503,146.929-50.247,220.395c-2.016,8.847-3.954,17.711-6.04,27.07c15.361,0,29.998,0.091,44.63-0.164
		c1.232-0.021,3.205-2.189,3.52-3.644c12.132-55.935,24.101-111.906,36.131-167.864c0.803-3.737,1.911-7.408,2.877-11.11
		c0.401,0.082,0.802,0.165,1.203,0.247c0.823,33.043,1.646,66.086,2.484,99.723c9.769,0,19.227-0.254,28.661,0.112
		c4.431,0.172,6.739-1.216,8.821-5.206c15.604-29.912,31.476-59.685,47.302-89.482c0.862-1.622,2.053-3.069,3.091-4.597
		c0.419,0.184,0.837,0.367,1.256,0.551C254.919,286.25,246.541,318.818,237.927,352.303z M1624.502,268.628
		c6.894-3.438,13.462-5.984,19.249-9.735c17.855-11.575,26.825-28.7,28.48-49.549c1.179-14.859-2.728-28.417-13.811-39.067
		c-9.301-8.937-20.944-11.701-33.454-11.711c-17.658-0.015-35.317-0.004-52.975-0.005c-11.647,0-23.295,0-35.298,0
		c-3.39,14.908-6.727,29.588-10.184,44.79c2.461,0,4.436-0.003,6.411,0.001c27.985,0.056,55.97,0.089,83.955,0.182
		c9.091,0.03,12.903,6.314,7.767,13.789c-2.22,3.231-6.389,6.447-10.097,7.046c-6.938,1.122-14.184,0.333-21.303,0.335
		c-22.489,0.007-44.979,0.073-67.467-0.047c-3.359-0.018-4.488,1.191-5.2,4.403c-5.524,24.939-11.268,49.829-16.953,74.733
		c-3.653,16.003-7.32,32.003-11.048,48.295c17.843,0,35.269,0,52.971,0c6.158-26.95,12.284-53.761,18.379-80.434
		c8.537-1.196,8.617-1.221,10.857,6.087c11.381,37.131,22.705,74.279,34.074,111.413c4.661,15.224,9.384,30.429,14.099,45.71
		c18.521,0,36.77,0,55.8,0C1660.543,379.066,1642.487,323.739,1624.502,268.628z M1051.028,271.221c13.789,0,26.883,0,40.479,0
		c-2.794,12.132-5.457,23.697-8.113,35.231c-13.763,0-27.037,0-40.382,0c-5.764-17.73-11.536-35.218-17.023-52.796
		c-0.509-1.63,0.208-4.313,1.347-5.684c11.156-13.426,22.658-26.565,33.737-40.053c2.969-3.614,6.073-4.694,10.591-4.661
		c27.653,0.199,55.308,0.096,82.963,0.093c1.783,0,3.565,0,5.376,0c3.429-15.175,6.727-29.77,10.026-44.369
		c-1.142-0.251-1.461-0.383-1.781-0.383c-40.315-0.018-80.631-0.069-120.946,0.097c-1.934,0.008-4.325,1.514-5.707,3.042
		c-5.342,5.909-10.336,12.132-15.506,18.199c-18.76,22.018-37.579,43.986-56.22,66.104c-1.232,1.461-2.107,4.314-1.566,6.016
		c10.1,31.802,20.497,63.509,30.653,95.293c1.19,3.726,2.736,5.094,6.883,5.073c38.315-0.201,76.632-0.119,114.949-0.119
		c1.63,0,3.261,0,5.223,0c9.71-42.607,19.337-84.847,29.081-127.601c-4.995,0-8.973,0-12.952,0
		c-25.322,0.001-50.644,0.001-75.967,0.002c-2.313,0-4.622-0.4-5.349,2.932C1057.718,241.879,1054.446,256.086,1051.028,271.221z
		 M659.461,158.734c-50.963,0-101.08,0-151.638,0c-3.352,14.679-6.701,29.348-10.183,44.599c16.548,0,32.629,0,49.87,0
		c-11.371,49.962-22.576,99.199-33.817,148.588c0.998,0.161,1.637,0.354,2.275,0.355c15.662,0.021,31.325-0.063,46.986,0.091
		c3.391,0.033,4.065-1.711,4.685-4.441c10.58-46.603,21.287-93.178,31.793-139.798c0.804-3.567,1.957-4.933,5.788-4.863
		c13.325,0.242,26.657,0.068,39.987,0.105c2.267,0.006,4.156,0.059,4.807-2.915C653.026,186.715,656.211,173.012,659.461,158.734z
		 M1150.501,351.847c1.127,0.232,1.609,0.419,2.091,0.419c42.966,0.021,85.932,0.056,128.897-0.101
		c1.297-0.005,3.414-1.818,3.748-3.141c2.631-10.455,4.934-20.993,7.31-31.511c0.776-3.436,1.474-6.889,2.347-10.993
		c-27.403,0-53.803,0-80.981,0c2.724-12.073,5.304-23.503,7.973-35.332c27.132,0,54.049,0,81.246,0
		c3.538-15.511,6.988-30.638,10.521-46.124c-1.811-0.149-3.095-0.348-4.38-0.348c-41.8-0.013-83.6,0.022-125.401-0.062
		c-3.172-0.006-4.589,0.742-5.344,4.143c-6.142,27.682-12.535,55.308-18.854,82.95
		C1156.648,324.988,1153.616,338.229,1150.501,351.847z M448.669,352.147c3.392-15.041,6.77-30.022,10.279-45.582
		c-27.727,0-54.171,0-81.126,0c2.724-11.995,5.351-23.561,8.061-35.496c27.275,0,54.188,0,81.238,0
		c3.533-15.518,6.971-30.616,10.454-45.914c-1.333-0.229-1.969-0.433-2.605-0.433c-42.637-0.016-85.273,0.006-127.91-0.066
		c-2.868-0.005-3.87,0.917-4.518,3.799c-8.8,39.168-17.782,78.295-26.697,117.436c-0.452,1.982-0.704,4.01-1.09,6.257
		C359.684,352.147,403.956,352.147,448.669,352.147z M781.907,352.087c-1.554-16.093-2.987-31.616-4.566-47.125
		c-2.556-25.093-5.282-50.169-7.742-75.272c-0.364-3.711-1.397-5.101-5.388-5.081c-31.973,0.164-63.947,0.145-95.921,0.012
		c-3.329-0.014-5.01,1.161-6.574,3.978c-18.372,33.087-36.875,66.102-55.335,99.141c-4.43,7.928-8.827,15.874-13.656,24.56
		c2.433,0,4.028,0,5.623,0c14.322,0,28.646-0.154,42.963,0.103c3.895,0.07,5.901-1.225,7.754-4.584
		c13.396-24.291,26.984-48.477,40.607-72.643c0.884-1.568,2.518-3.788,3.876-3.84c8.938-0.345,17.895-0.178,27.257-0.178
		c2.831,27.327,5.609,54.145,8.383,80.928C746.86,352.087,763.968,352.087,781.907,352.087z M1291.604,352.044
		c2.087,0.116,3.369,0.248,4.651,0.249c14.822,0.014,29.645-0.096,44.465,0.087c3.489,0.043,5.289-1.174,6.962-4.207
		c13.555-24.584,27.282-49.072,41.055-73.535c0.791-1.406,2.407-3.283,3.691-3.324c8.939-0.29,17.891-0.153,27.171-0.153
		c2.824,27.181,5.598,53.872,8.392,80.753c17.632,0,34.98,0,52.384,0c0-2.215,0.166-4.059-0.026-5.865
		c-1.544-14.518-3.242-29.019-4.726-43.542c-2.482-24.281-4.876-48.572-7.209-72.868c-0.314-3.27-1.102-5.032-5.002-5.014
		c-32.308,0.145-64.617,0.123-96.925,0.027c-2.906-0.009-4.361,0.986-5.752,3.515c-10.33,18.777-20.85,37.45-31.305,56.159
		C1316.965,306.635,1304.505,328.949,1291.604,352.044z M890.093,158.819c-18.223,0-35.488,0-52.985,0
		c-14.705,64.496-29.366,128.797-44.115,193.483c2.276,0,4.095,0,5.914,0c38.31,0,76.619,0.013,114.929-0.017
		c4.305-0.003,9.806,1.306,12.573-0.825c2.708-2.085,2.777-7.756,3.746-11.913c2.506-10.747,4.871-21.527,7.464-33.06
		c-27.423,0-54.101,0-81.168,0C867.73,256.977,878.851,208.164,890.093,158.819z M1328.806,158.561c-10.408,0-20.048,0-29.689,0
		c-33.311,0-66.622,0.043-99.933-0.064c-3.327-0.011-5.078,0.52-5.605,4.323c-0.702,5.066-2.323,10.001-3.459,15.012
		c-1.887,8.331-3.701,16.678-5.657,25.52c16.016,0,31.319,0,46.621,0c27.648,0.001,55.297,0.045,82.944-0.097
		c1.722-0.009,4.681-1.163,4.966-2.308C1322.435,187.14,1325.479,173.234,1328.806,158.561z M348.414,203.183
		c45.183,0,89.466,0,134.185,0c3.331-14.669,6.652-29.299,10.131-44.622c-2.707,0-4.664,0-6.62,0
		c-37.485,0-74.97-0.021-112.455,0.025c-4.938,0.006-11.172-1.378-14.434,1.058c-2.999,2.24-2.898,8.74-3.985,13.405
		C352.943,182.888,350.767,192.754,348.414,203.183z M676.29,202.957c30.512,0,60.302,0,90.44,0
		c-1.578-15.027-3.11-29.621-4.661-44.39c-19.947,0-39.244-0.071-58.537,0.141c-1.479,0.016-3.475,1.723-4.319,3.175
		c-6.175,10.619-12.13,21.366-18.124,32.089C679.508,196.803,678.03,199.691,676.29,202.957z M1460.897,158.575
		c-19.93,0-39.388-0.075-58.842,0.152c-1.449,0.017-3.346,1.919-4.23,3.419c-4.635,7.865-9.033,15.87-13.468,23.851
		c-3.089,5.56-6.106,11.16-9.331,17.063c30.623,0,60.369,0,90.495,0C1463.969,188.123,1462.451,173.518,1460.897,158.575z
		 M1524.42,122.879c0.536-0.296,1.073-0.592,1.609-0.888c3.569,3.907,7.097,7.853,10.724,11.706
		c2.091,2.22,14.97,3.942,17.491,2.422c0.393-0.237,0.819-0.681,0.918-1.102c1.884-7.98,3.721-15.971,5.645-24.29
		c-5.381,0-10.008,0-15.088,0c-1.067,4.509-2.14,9.04-3.212,13.571c-0.578,0.381-1.157,0.763-1.735,1.144
		c-3.587-4.122-7.091-8.321-10.793-12.337c-2.018-2.188-14.55-3.771-16.993-2.325c-0.505,0.299-0.985,0.948-1.12,1.519
		c-1.851,7.83-3.64,15.675-5.567,24.055c4.753,0,8.753,0.257,12.684-0.153c1.219-0.127,2.825-1.884,3.249-3.215
		C1523.271,129.716,1523.728,126.26,1524.42,122.879z M960.021,135.806c14.818,2.376,15.757,1.738,17.758-11.698
		c0.034-0.229,0.431-0.404,1.324-1.19c3.712,3.553,7.481,7.172,11.263,10.777c2.262,2.156,15.039,4.005,17.495,2.387
		c0.709-0.467,1.19-1.564,1.4-2.461c1.771-7.545,3.455-15.11,5.172-22.703c-14.923-1.607-14.921-1.607-17.787,11.901
		c-0.055,0.258-0.406,0.452-1.423,1.521c-8.184-7.333-14.943-19.057-29.56-12.515C963.943,119.142,961.985,127.462,960.021,135.806z
		 M1132.328,122.531c-6.464,0-12.286,0.146-18.095-0.054c-3.553-0.122-5.375,0.854-4.424,4.713c1.63,0.299,3.259,0.599,6.029,1.107
		c-5.419,3.643-10.012,3.888-14.784,2.381c-3.373-1.065-4.621-3.297-3.765-6.914c1.61-6.799,10.605-11,17.248-6.907
		c5.905,3.639,11.639,1.559,17.743,1.689c-1.234-2.116-2.524-4.27-4.389-5.049c-3.768-1.574-7.785-2.995-11.811-3.418
		c-10.087-1.06-19.969,0.059-28.754,5.691c-4.087,2.62-7.098,6.372-6.344,11.591c0.716,4.964,4.783,6.784,9.056,8.132
		c8.344,2.632,16.66,2.465,25.003-0.033c1.111-0.333,2.592-0.65,3.516-0.193c6.567,3.251,10.341,1.756,11.922-4.943
		C1131.047,127.916,1131.621,125.508,1132.328,122.531z M920.819,137.983c0.045-0.261,0.09-0.523,0.134-0.784
		c1.659,0,3.341,0.178,4.974-0.03c7.75-0.988,15.471-2.172,21.412-7.981c5.893-5.761,5.007-12.535-2.447-15.924
		c-3.688-1.677-7.844-2.694-11.885-3.151c-10.421-1.18-20.526,0.129-29.582,5.909c-3.875,2.473-6.798,6.423-5.331,10.824
		c1.04,3.121,4.286,6.438,7.361,7.733C910.211,136.581,915.662,136.932,920.819,137.983z M1465.016,137.52
		c10.451-0.393,18.616-1.409,25.908-6.107c4.054-2.611,6.917-6.041,6.381-11.002c-0.538-4.976-4.633-7.452-8.824-8.449
		c-5.599-1.333-11.486-2.279-17.205-2.086c-7.596,0.257-15.271,1.384-21.634,6.346c-3.416,2.664-6.282,5.916-5.617,10.48
		c0.701,4.809,4.509,7.345,8.851,8.503C1457.486,136.435,1462.27,137.016,1465.016,137.52z M748.52,110.553
		c-13.376,0-26.004-0.046-38.631,0.091c-0.958,0.01-2.527,1.162-2.754,2.053c-1.954,7.674-3.665,15.41-5.574,23.67
		c13.005,0,25.47-0.142,37.928,0.08c4.158,0.074,5.227-1.668,4.711-5.814c-8.126,0-16.217,0-24.308,0
		c-0.268-0.581-0.536-1.162-0.804-1.742c1.304-0.852,2.577-2.378,3.917-2.439c5.949-0.268,11.916-0.116,18.032-0.116
		c0.379-2.028,0.676-3.614,1.077-5.757c-6.918,0-13.509,0-20.126,0c0.311-4.281,0.31-4.373,3.752-4.403
		c7.118-0.063,14.237-0.019,21.352-0.019C747.582,114.229,747.943,112.816,748.52,110.553z M1187.215,132.654
		c-0.385-0.663-0.77-1.327-1.155-1.99c-8.103,0-16.206,0-24.31,0c-0.259-0.565-0.518-1.13-0.777-1.694
		c1.343-0.878,2.653-2.448,4.035-2.513c5.951-0.281,11.922-0.12,18.116-0.12c0.416-2.098,0.743-3.747,1.175-5.922
		c-7.227,0-13.844,0-20.46,0c-0.224-0.511-0.449-1.022-0.674-1.533c1.465-0.902,2.893-2.502,4.4-2.581
		c5.815-0.304,11.656-0.091,17.486-0.131c4.848-0.034,4.86-0.085,4.832-5.449c-13.299,0-26.598,0-40.181,0
		c-2.014,8.463-4.003,16.817-6.102,25.638c13.445,0,26.424,0.115,39.395-0.163C1184.426,136.165,1185.809,133.889,1187.215,132.654z
		 M755.727,128.663c-0.351,0.636-0.703,1.273-1.054,1.909c2.271,1.552,4.399,4.125,6.84,4.467c7.481,1.048,15.1,1.8,22.629,1.555
		c4.456-0.145,9.036-1.974,13.173-3.884c1.816-0.838,3.684-3.798,3.625-5.737c-0.045-1.469-2.896-3.464-4.868-4.129
		c-3.58-1.207-7.44-1.575-11.174-2.338c-3.489-0.713-6.965-1.485-10.447-2.231c0.094-0.862,0.187-1.725,0.281-2.587
		c3.262,0,6.552-0.268,9.781,0.059c5.638,0.571,11.239,1.509,16.855,2.293c0.279-0.662,0.559-1.323,0.838-1.985
		c-1.942-1.445-3.737-3.83-5.853-4.161c-6.651-1.041-13.446-1.928-20.138-1.667c-4.643,0.181-9.365,1.983-13.731,3.823
		c-1.661,0.7-3.482,3.649-3.293,5.359c0.183,1.653,2.618,3.779,4.487,4.376c4.069,1.3,8.41,1.74,12.633,2.569
		c3.077,0.605,6.141,1.272,10.518,2.183c-5.023,4.37-10.153,4.164-13.291,2.393C767.515,127.53,761.615,129.453,755.727,128.663z
		 M399.787,126.744c-6.963,0.479-12.975-1.426-18.807,2.993c-2.503,1.896-7.278,1.363-10.935,1.02
		c-4.337-0.406-5.091-3.742-4.089-7.47c2.003-7.454,13.522-10.46,19.284-5.124c0.887,0.822,2.032,1.845,3.105,1.903
		c4.095,0.223,8.209,0.09,12.316,0.09c0.33-0.483,0.659-0.967,0.989-1.45c-2.053-2.036-3.775-4.78-6.24-5.936
		c-3.369-1.58-7.262-2.398-11.006-2.758c-9.931-0.956-19.638,0.053-28.314,5.545c-4.137,2.619-7.052,6.28-6.227,11.587
		c0.782,5.023,4.76,7.34,9.05,8.053c6.827,1.134,13.878,2.27,20.699,1.725C386.921,136.338,394.516,134.708,399.787,126.744z
		 M1348.713,120.169c0.382-0.541,0.764-1.082,1.147-1.623c-2.122-2.009-3.907-4.993-6.424-5.863
		c-13.632-4.712-27.061-4.376-39.76,3.286c-4.036,2.435-6.298,6.087-5.849,10.791c0.435,4.558,4.011,6.892,7.88,8.139
		c11.633,3.748,23.283,3.607,34.543-1.397c2.725-1.211,4.891-3.683,7.313-5.575c-10.607-1.654-10.455-1.281-18.714,2.085
		c-3.262,1.33-7.436,1.101-11.076,0.643c-3.929-0.495-4.839-3.542-3.734-7.18c2.369-7.798,13.381-10.613,19.498-5.069
		c0.972,0.881,2.438,1.611,3.717,1.685C1341.063,120.31,1344.892,120.169,1348.713,120.169z M828.057,128.331
		c2.021,0,3.686,0.173,5.304-0.03c6.69-0.839,13.461-1.373,20.011-2.862c3.791-0.862,7.446-4.003,5.98-8.275
		c-0.826-2.405-4.633-5.117-7.288-5.332c-11.211-0.907-22.493-0.994-33.752-1.151c-0.928-0.013-2.445,1.555-2.729,2.64
		c-1.96,7.491-3.666,15.049-5.469,22.655c5.609,0,10.829,0,15.939,0C826.74,133.355,827.326,131.119,828.057,128.331z
		 M545.805,120.161c0.341-0.532,0.682-1.064,1.022-1.596c-2.024-1.958-3.734-4.608-6.149-5.706
		c-3.385-1.538-7.251-2.285-10.988-2.728c-10.299-1.22-20.241,0-29.131,5.854c-3.802,2.503-6.267,5.941-5.714,10.836
		c0.529,4.679,3.957,6.789,7.82,8.041c11.795,3.821,23.56,3.604,34.937-1.521c2.608-1.175,4.654-3.595,6.959-5.443
		c-0.265-0.389-0.529-0.778-0.794-1.168c-5.992,0.546-12.068-1.402-17.878,3.164c-2.407,1.891-7.255,1.082-10.945,0.822
		c-3.842-0.271-4.779-3.263-4.125-6.594c0.8-4.073,3.26-6.875,7.379-7.902c4.309-1.074,8.513-1.249,12.19,1.954
		c0.901,0.785,1.985,1.841,3.031,1.896C537.538,120.291,541.675,120.161,545.805,120.161z M1071.151,136.294
		c-3.79-8.392-7.256-16.237-10.937-23.979c-0.42-0.884-2.008-1.609-3.116-1.706c-8.425-0.741-16.703-0.907-21.688,7.918
		c-0.475,0.84-1.376,1.432-2.045,2.171c-4.471,4.945-8.933,9.898-13.398,14.848c6.133-0.184,12.317,3.174,17.318-2.064
		c0.511-0.536,1.943-0.413,2.899-0.269c5.528,0.835,11.13-1.494,16.77,2.693C1059.919,138.106,1065.864,136.294,1071.151,136.294z
		 M1239.431,135.279c0.174,0.395,0.349,0.791,0.523,1.186c5.523-1.119,11.749,2.314,16.653-3.059c0.33-0.362,1.311-0.328,1.93-0.198
		c5.642,1.181,11.487-2.01,17.332,2.613c2.899,2.293,9.11,0.399,14.42,0.399c-2.618-5.968-5.47-11.094-7.126-16.581
		c-2.319-7.683-6.906-10.646-14.617-9.091c-2.636,0.532-6.105,0.302-7.728,1.905
		C1253.404,119.773,1246.511,127.621,1239.431,135.279z M341.615,136.293c0-0.781,0.104-1.152-0.015-1.425
		c-2.061-4.708-4.731-9.241-6.104-14.138c-2.357-8.407-7.173-11.57-15.849-10.374c-3.599,0.496-6.449,0.934-8.99,3.851
		c-5.339,6.13-11.091,11.898-16.612,17.872c-1.009,1.091-1.723,2.455-2.978,4.283c3.007,0,5.005,0.122,6.982-0.03
		c2.728-0.209,5.479-0.446,8.148-1.009c2.109-0.444,4.156-2.115,6.15-1.987c5.253,0.338,10.497-1.499,15.812,2.573
		C330.981,138.072,336.822,136.293,341.615,136.293z M601.359,136.356c-3.842-8.451-7.284-16.133-10.867-23.749
		c-0.409-0.87-1.607-1.943-2.445-1.948c-7.565-0.044-15.318-1.855-21.042,6.121c-4.844,6.749-11.104,12.482-16.737,18.664
		c5.923-0.329,11.94,3.561,16.782-1.811c0.577-0.64,2.21-0.423,3.356-0.44c3.323-0.048,6.669-0.243,9.96,0.085
		c1.696,0.169,3.28,1.36,4.939,2.029c1.012,0.408,2.063,0.97,3.109,1.001C592.389,136.427,596.369,136.356,601.359,136.356z
		 M290.42,110.709c-15.169,0-30.089,0-45.282,0c-0.487,1.735-0.958,3.418-1.645,5.866c5.12,0,9.659,0,14.906,0
		c-1.484,6.964-2.806,13.163-4.217,19.787c2.241,0,4.051-0.001,5.861,0c10,0.006,10,0.006,12.325-9.615
		c2.439-10.09,2.441-10.247,12.784-10.134C289.24,116.658,291.131,115.392,290.42,110.709z M437.44,136.168
		c0.768-3.204,1.561-6.376,2.285-9.564c2.272-10.007,2.267-10.223,12.562-9.971c4.525,0.111,6.284-1.462,5.863-6.095
		c-13.872,0-27.647,0.161-41.414-0.092c-4.498-0.083-5.379,1.923-4.932,6.213c4.581,0,9.133,0,14.174,0
		c-1.506,6.834-2.871,13.024-4.3,19.508C427.201,136.168,432.144,136.168,437.44,136.168z M1405.25,116.24
		c0.471-1.781,0.921-3.481,1.509-5.701c-14.327,0-28.117,0.156-41.9-0.09c-4.453-0.08-5.476,1.79-4.889,6.104
		c4.453,0,8.88,0,14.096,0c-1.51,6.87-2.879,13.105-4.305,19.593c5.343,0,10.44,0,15.721,0c0.403-1.581,0.779-3.015,1.133-4.453
		c1.147-4.659,0.859-11.017,3.824-13.509C1393.507,115.604,1399.729,116.775,1405.25,116.24z M634.28,110.555
		c-4.923,0-9.379-0.066-13.83,0.061c-0.805,0.023-2.144,0.696-2.297,1.305c-1.991,7.935-3.813,15.912-5.809,24.442
		c12.16,0,23.44-0.143,34.713,0.078c3.95,0.077,5.421-1.384,5.029-5.804c-7.353,0-14.696,0-22.339,0
		C631.288,123.807,632.671,117.683,634.28,110.555z M882.348,136.161c1.993-8.473,3.953-16.804,6.024-25.605
		c-4.897,0-9.369-0.094-13.831,0.079c-0.894,0.035-2.34,0.943-2.528,1.698c-1.94,7.803-3.674,15.657-5.54,23.827
		C871.954,136.161,876.747,136.161,882.348,136.161z M464.604,136.354c4.827,0,9.131,0.193,13.396-0.127
		c1.161-0.087,2.9-1.538,3.191-2.667c1.932-7.5,3.543-15.083,5.344-23.015c-4.623,0-8.931-0.112-13.226,0.079
		c-1.076,0.048-2.845,0.88-3.047,1.671C468.267,120.097,466.535,127.966,464.604,136.354z M1412.616,136.355
		c4.939,0,9.251,0.12,13.548-0.088c1.03-0.05,2.691-1.018,2.903-1.857c1.971-7.773,3.688-15.611,5.542-23.707
		c-5.547,0-10.5,0-15.871,0C1416.744,119.054,1414.76,127.37,1412.616,136.355z M1692.208,166.86
		c1.203,2.793,2.109,5.244,3.304,7.545c0.752,1.449,1.937,2.674,2.927,3.999c1.01-1.364,2.149-2.653,2.998-4.111
		c1.135-1.949,2.046-4.028,3.054-6.052c0.422,0.157,0.844,0.314,1.266,0.47c0,3.123,0,6.245,0,9.405
		c3.762-0.426,4.853-8.427,2.902-19.664c-8.844,0.724-5.25,10.685-10.278,13.858c-4.815-3.39-1.604-12.991-10.437-14.001
		c0,7.087,0,13.478,0,21.312C1693.382,175.87,1688.524,170.559,1692.208,166.86z M1668.854,158.905
		c-0.154,0.431-0.308,0.862-0.463,1.293c0.821,0.434,1.694,1.316,2.456,1.229c4.451-0.51,4.836,2.07,4.677,5.498
		c-0.174,3.723-0.04,7.46-0.04,11.191c0.39,0.236,0.781,0.471,1.171,0.707c0.672-1.115,1.824-2.189,1.922-3.352
		c0.266-3.136,0.172-6.313,0.052-9.467c-0.112-2.929,0.485-4.864,4.083-4.547c0.987,0.087,2.068-0.887,3.106-1.374
		c-0.133-0.393-0.266-0.785-0.399-1.178C1679.897,158.905,1674.376,158.905,1668.854,158.905z"/>
	<path fill="#F8F8F8" d="M1603.985,434.135c-485.503,0-970.361,0-1455.866,0c1.992-9.773,3.889-19.253,5.863-28.716
		c1.932-9.261,4.071-18.48,5.844-27.771c0.586-3.073,1.819-4.399,4.943-3.987c1.31,0.173,2.662,0.028,3.995,0.028
		c470.568,0,941.135,0.009,1411.703-0.12c5.143-0.001,7.003,1.563,8.297,6.468c4.359,16.535,9.344,32.904,14.074,49.341
		C1603.244,430.796,1603.533,432.248,1603.985,434.135z M1115.214,424.948c10.522,0,20.188,0.667,29.723-0.166
		c12.393-1.083,21.569-7.128,25.701-19.734c4.252-12.974-0.891-21.845-14.33-23.205c-6.752-0.683-13.569-0.872-20.362-0.981
		c-9.868-0.158-10.046-0.085-12.445,9.319C1120.631,401.436,1118.099,412.778,1115.214,424.948z M719.312,426.267
		c14.258-0.371,25.761-5.058,31.936-18.674c4.311-9.504,1.75-19.96-5.735-24.221c-14.595-8.308-37.452-1.904-45.637,12.788
		c-7.409,13.3-2.228,26.412,11.732,29.428C714.177,426.142,716.88,426.068,719.312,426.267z M598.265,394.524
		c0.94-7.289-0.858-10.972-6.831-12.942c-11.087-3.657-21.99-2.617-32.067,3.184c-4.905,2.824-7.108,7.829-6.483,13.639
		c0.575,5.352,4.675,7.227,9.105,8.559c2.205,0.663,4.508,0.999,6.717,1.651c3.107,0.917,6.168,1.991,10.022,3.25
		c-6.052,4.343-9.002,4.184-12.816,0.287c-0.629-0.642-1.448-1.531-2.199-1.551c-5.111-0.137-10.227-0.072-15.237-0.072
		c-1.232,6.858,0.291,10.04,5.887,13.029c9.935,5.307,28.733,3.373,37.319-3.84c7.93-6.662,6.378-17.218-3.184-20.778
		c-3.069-1.142-6.409-1.532-9.571-2.455c-2.497-0.728-4.91-1.745-7.36-2.633c0.127-0.659,0.255-1.318,0.382-1.978
		c2.486,0,5.774-1.026,7.316,0.18C585.416,396.866,592.014,393.385,598.265,394.524z M878.383,380.85
		c-4.777,0-9.084,0.388-13.285-0.112c-3.962-0.472-5.299,1.336-6.041,4.65c-1.912,8.54-3.909,17.06-5.898,25.582
		c-1.034,4.432-2.121,8.852-3.294,13.732c14.014,0,27.386,0,41.186,0c0.782-3.392,1.576-6.833,2.539-11.011
		c-8.053,0-15.275,0-22.907,0C873.269,402.662,875.702,392.283,878.383,380.85z M1011,424.744
		c3.437-14.51,6.846-28.899,10.345-43.671c-6.393,0-12.142,0-18.051,0c-3.472,14.565-6.888,28.892-10.412,43.671
		C999.174,424.744,1004.788,424.744,1011,424.744z"/>
	<path fill="#F8F8F8" d="M237.927,352.303c8.614-33.485,16.992-66.053,25.369-98.621c-0.419-0.184-0.837-0.367-1.256-0.551
		c-1.038,1.528-2.23,2.975-3.091,4.597c-15.825,29.797-31.698,59.569-47.302,89.482c-2.081,3.99-4.39,5.378-8.821,5.206
		c-9.434-0.366-18.892-0.112-28.661-0.112c-0.838-33.637-1.661-66.68-2.484-99.723c-0.401-0.082-0.802-0.165-1.203-0.247
		c-0.966,3.702-2.074,7.373-2.877,11.11c-12.03,55.958-23.999,111.928-36.131,167.864c-0.316,1.455-2.289,3.623-3.52,3.644
		c-14.631,0.255-29.268,0.164-44.63,0.164c2.086-9.358,4.024-18.223,6.04-27.07c16.744-73.466,33.509-146.927,50.247-220.395
		c1.88-8.254,3.497-16.571,5.57-24.774c0.413-1.634,2.333-4.106,3.588-4.124c18.645-0.266,37.296-0.184,56.654-0.184
		c0.527,39.072,1.05,77.852,1.574,116.632c0.418,0.162,0.835,0.324,1.253,0.486c0.902-1.378,1.91-2.699,2.692-4.142
		c19.565-36.085,39.148-72.16,58.58-108.316c1.784-3.32,3.663-4.816,7.633-4.769c18.978,0.227,37.96,0.102,57.807,0.102
		c-0.904,4.52-1.629,8.647-2.56,12.728c-13.296,58.269-26.673,116.519-39.832,174.819c-1.046,4.633-2.531,6.474-7.65,6.34
		C269.458,352.045,253.981,352.303,237.927,352.303z"/>
	<path fill="#F8F8F8" d="M1624.502,268.628c17.986,55.111,36.042,110.437,54.253,166.239c-19.03,0-37.279,0-55.8,0
		c-4.715-15.281-9.438-30.486-14.099-45.71c-11.369-37.134-22.693-74.283-34.074-111.413c-2.24-7.308-2.32-7.284-10.857-6.087
		c-6.095,26.673-12.22,53.484-18.379,80.434c-17.702,0-35.129,0-52.971,0c3.728-16.292,7.395-32.292,11.048-48.295
		c5.684-24.904,11.428-49.794,16.953-74.733c0.712-3.213,1.841-4.421,5.2-4.403c22.488,0.119,44.978,0.054,67.467,0.047
		c7.118-0.002,14.365,0.787,21.303-0.335c3.708-0.6,7.877-3.815,10.097-7.046c5.136-7.475,1.324-13.759-7.767-13.789
		c-27.985-0.092-55.97-0.126-83.955-0.182c-1.975-0.004-3.95-0.001-6.411-0.001c3.457-15.203,6.794-29.882,10.184-44.79
		c12.003,0,23.651,0,35.298,0c17.658,0,35.317-0.01,52.975,0.005c12.51,0.01,24.153,2.774,33.454,11.711
		c11.083,10.649,14.99,24.208,13.811,39.067c-1.655,20.849-10.624,37.974-28.48,49.549
		C1637.964,262.644,1631.395,265.191,1624.502,268.628z"/>
	<path fill="#F8F8F8" d="M1051.028,271.221c3.418-15.135,6.69-29.342,9.798-43.586c0.727-3.333,3.036-2.932,5.349-2.932
		c25.322,0,50.644-0.001,75.967-0.002c3.979,0,7.957,0,12.952,0c-9.744,42.755-19.371,84.994-29.081,127.601
		c-1.962,0-3.593,0-5.223,0c-38.317,0-76.633-0.083-114.949,0.119c-4.147,0.022-5.693-1.347-6.883-5.073
		c-10.156-31.784-20.553-63.492-30.653-95.293c-0.541-1.703,0.335-4.555,1.566-6.016c18.642-22.118,37.46-44.086,56.22-66.104
		c5.169-6.067,10.163-12.29,15.506-18.199c1.382-1.528,3.773-3.034,5.707-3.042c40.315-0.166,80.63-0.115,120.946-0.097
		c0.319,0,0.639,0.132,1.781,0.383c-3.299,14.599-6.598,29.195-10.026,44.369c-1.811,0-3.593,0-5.376,0
		c-27.654,0.003-55.31,0.106-82.963-0.093c-4.518-0.033-7.623,1.047-10.591,4.661c-11.079,13.488-22.582,26.627-33.737,40.053
		c-1.139,1.371-1.856,4.054-1.347,5.684c5.487,17.578,11.259,35.067,17.023,52.796c13.345,0,26.62,0,40.382,0
		c2.656-11.534,5.319-23.099,8.113-35.231C1077.911,271.221,1064.817,271.221,1051.028,271.221z"/>
	<path fill="#F8F8F8" d="M659.461,158.734c-3.25,14.278-6.435,27.98-9.446,41.721c-0.652,2.974-2.541,2.922-4.807,2.915
		c-13.329-0.037-26.662,0.137-39.987-0.105c-3.831-0.07-4.984,1.296-5.788,4.863c-10.506,46.62-21.212,93.195-31.793,139.798
		c-0.62,2.73-1.294,4.474-4.685,4.441c-15.661-0.154-31.324-0.07-46.986-0.091c-0.639-0.001-1.277-0.193-2.275-0.355
		c11.24-49.389,22.446-98.626,33.817-148.588c-17.241,0-33.322,0-49.87,0c3.482-15.252,6.831-29.92,10.183-44.599
		C558.381,158.734,608.498,158.734,659.461,158.734z"/>
	<path fill="#F8F8F8" d="M1150.501,351.847c3.115-13.618,6.147-26.858,9.174-40.1c6.319-27.642,12.712-55.268,18.854-82.95
		c0.755-3.402,2.171-4.15,5.344-4.143c41.8,0.084,83.6,0.049,125.401,0.062c1.285,0,2.569,0.199,4.38,0.348
		c-3.532,15.487-6.983,30.614-10.521,46.124c-27.196,0-54.113,0-81.246,0c-2.67,11.829-5.249,23.258-7.973,35.332
		c27.179,0,53.579,0,80.981,0c-0.873,4.104-1.571,7.557-2.347,10.993c-2.377,10.518-4.679,21.056-7.31,31.511
		c-0.333,1.323-2.451,3.136-3.748,3.141c-42.965,0.157-85.932,0.122-128.897,0.101
		C1152.11,352.265,1151.628,352.079,1150.501,351.847z"/>
	<path fill="#F8F8F8" d="M448.669,352.147c-44.713,0-88.984,0-133.912,0c0.386-2.246,0.638-4.274,1.09-6.257
		c8.915-39.142,17.897-78.269,26.697-117.436c0.647-2.882,1.65-3.804,4.518-3.799c42.636,0.072,85.273,0.05,127.91,0.066
		c0.636,0,1.271,0.204,2.605,0.433c-3.483,15.299-6.921,30.396-10.454,45.914c-27.05,0-53.963,0-81.238,0
		c-2.711,11.935-5.337,23.501-8.061,35.496c26.955,0,53.399,0,81.126,0C455.439,322.125,452.06,337.107,448.669,352.147z"/>
	<path fill="#F8F8F8" d="M781.907,352.087c-17.938,0-35.047,0-52.718,0c-2.774-26.783-5.553-53.601-8.383-80.928
		c-9.362,0-18.32-0.167-27.257,0.178c-1.357,0.052-2.992,2.272-3.876,3.84c-13.623,24.165-27.211,48.351-40.607,72.643
		c-1.853,3.359-3.859,4.654-7.754,4.584c-14.317-0.256-28.641-0.102-42.963-0.103c-1.595,0-3.19,0-5.623,0
		c4.828-8.686,9.226-16.632,13.656-24.56c18.46-33.039,36.963-66.054,55.335-99.141c1.564-2.817,3.245-3.992,6.574-3.978
		c31.973,0.132,63.948,0.152,95.921-0.012c3.992-0.02,5.025,1.37,5.388,5.081c2.46,25.102,5.186,50.179,7.742,75.272
		C778.92,320.471,780.353,335.995,781.907,352.087z"/>
	<path fill="#F8F8F8" d="M1291.604,352.044c12.901-23.096,25.36-45.409,37.827-67.72c10.454-18.709,20.975-37.382,31.305-56.159
		c1.391-2.528,2.847-3.523,5.752-3.515c32.308,0.097,64.617,0.118,96.925-0.027c3.9-0.018,4.688,1.744,5.002,5.014
		c2.333,24.296,4.727,48.587,7.209,72.868c1.484,14.523,3.182,29.025,4.726,43.542c0.192,1.806,0.026,3.649,0.026,5.865
		c-17.404,0-34.752,0-52.384,0c-2.793-26.881-5.567-53.572-8.392-80.753c-9.28,0-18.232-0.137-27.171,0.153
		c-1.285,0.042-2.9,1.919-3.691,3.324c-13.773,24.462-27.501,48.951-41.055,73.535c-1.673,3.034-3.473,4.25-6.962,4.207
		c-14.82-0.184-29.643-0.073-44.465-0.087C1294.973,352.292,1293.691,352.16,1291.604,352.044z"/>
	<path fill="#F8F8F8" d="M890.093,158.819c-11.242,49.345-22.362,98.157-33.642,147.668c27.068,0,53.746,0,81.168,0
		c-2.593,11.533-4.958,22.313-7.464,33.06c-0.969,4.157-1.038,9.827-3.746,11.913c-2.767,2.13-8.269,0.821-12.573,0.825
		c-38.31,0.03-76.619,0.017-114.929,0.017c-1.819,0-3.638,0-5.914,0c14.749-64.686,29.409-128.987,44.115-193.483
		C854.604,158.819,871.869,158.819,890.093,158.819z"/>
	<path fill="#F8F8F8" d="M1328.806,158.561c-3.327,14.673-6.371,28.579-9.811,42.386c-0.285,1.144-3.244,2.299-4.966,2.308
		c-27.648,0.142-55.296,0.098-82.944,0.097c-15.302-0.001-30.605,0-46.621,0c1.956-8.841,3.77-17.189,5.657-25.52
		c1.135-5.012,2.757-9.946,3.459-15.012c0.527-3.802,2.278-4.333,5.605-4.323c33.311,0.107,66.622,0.064,99.933,0.064
		C1308.758,158.561,1318.398,158.561,1328.806,158.561z"/>
	<path fill="#F8F8F8" d="M348.414,203.183c2.353-10.429,4.529-20.294,6.822-30.133c1.087-4.665,0.986-11.165,3.985-13.405
		c3.262-2.436,9.496-1.052,14.434-1.058c37.485-0.046,74.97-0.025,112.455-0.025c1.956,0,3.913,0,6.62,0
		c-3.479,15.323-6.801,29.952-10.131,44.622C437.88,203.183,393.597,203.183,348.414,203.183z"/>
	<path fill="#F8F8F8" d="M676.29,202.957c1.741-3.266,3.218-6.155,4.8-8.985c5.994-10.723,11.949-21.47,18.124-32.089
		c0.844-1.451,2.839-3.158,4.319-3.175c19.294-0.212,38.591-0.141,58.537-0.141c1.551,14.769,3.083,29.363,4.661,44.39
		C736.592,202.957,706.802,202.957,676.29,202.957z"/>
	<path fill="#F8F8F8" d="M1460.897,158.575c1.553,14.943,3.072,29.548,4.625,44.484c-30.126,0-59.871,0-90.495,0
		c3.224-5.903,6.241-11.503,9.331-17.063c4.435-7.981,8.833-15.986,13.468-23.851c0.884-1.5,2.781-3.402,4.23-3.419
		C1421.509,158.5,1440.967,158.575,1460.897,158.575z"/>
	<path fill="#F8F8F8" d="M1524.42,122.879c-0.692,3.381-1.148,6.837-2.189,10.107c-0.424,1.331-2.031,3.088-3.249,3.215
		c-3.931,0.41-7.931,0.153-12.684,0.153c1.928-8.379,3.716-16.224,5.567-24.055c0.135-0.572,0.615-1.22,1.12-1.519
		c2.443-1.447,14.975,0.136,16.993,2.325c3.703,4.015,7.207,8.214,10.793,12.337c0.578-0.381,1.157-0.763,1.735-1.144
		c1.073-4.531,2.145-9.062,3.212-13.571c5.08,0,9.707,0,15.088,0c-1.923,8.319-3.76,16.31-5.645,24.29
		c-0.099,0.422-0.526,0.865-0.918,1.102c-2.52,1.52-15.4-0.201-17.491-2.422c-3.627-3.852-7.155-7.799-10.724-11.706
		C1525.493,122.287,1524.956,122.583,1524.42,122.879z"/>
	<path fill="#F8F8F8" d="M960.021,135.806c1.964-8.344,3.922-16.664,5.644-23.98c14.617-6.542,21.377,5.182,29.56,12.515
		c1.016-1.069,1.368-1.264,1.423-1.521c2.866-13.507,2.863-13.508,17.787-11.901c-1.717,7.593-3.401,15.158-5.172,22.703
		c-0.21,0.896-0.691,1.993-1.4,2.461c-2.457,1.618-15.233-0.231-17.495-2.387c-3.783-3.605-7.552-7.224-11.263-10.777
		c-0.893,0.786-1.29,0.961-1.324,1.19C975.778,137.544,974.839,138.182,960.021,135.806z"/>
	<path fill="#F8F8F8" d="M1132.328,122.531c-0.707,2.976-1.281,5.385-1.85,7.794c-1.582,6.699-5.355,8.194-11.922,4.943
		c-0.923-0.457-2.405-0.14-3.516,0.193c-8.343,2.498-16.659,2.665-25.003,0.033c-4.273-1.348-8.34-3.168-9.056-8.132
		c-0.753-5.219,2.258-8.971,6.344-11.591c8.785-5.632,18.667-6.751,28.754-5.691c4.026,0.423,8.043,1.845,11.811,3.418
		c1.864,0.779,3.154,2.933,4.389,5.049c-6.104-0.129-11.838,1.95-17.743-1.689c-6.643-4.093-15.638,0.108-17.248,6.907
		c-0.856,3.617,0.392,5.848,3.765,6.914c4.772,1.507,9.365,1.262,14.784-2.381c-2.77-0.509-4.4-0.808-6.033-1.111
		c-0.948-3.856,0.874-4.832,4.427-4.709C1120.042,122.677,1125.864,122.531,1132.328,122.531z"/>
	<path fill="#F8F8F8" d="M920.819,137.983c-5.156-1.051-10.608-1.402-15.364-3.405c-3.076-1.295-6.321-4.612-7.361-7.733
		c-1.467-4.401,1.455-8.351,5.331-10.824c9.057-5.78,19.162-7.09,29.582-5.909c4.041,0.458,8.197,1.475,11.885,3.151
		c7.454,3.389,8.34,10.162,2.447,15.924c-5.941,5.809-13.662,6.994-21.412,7.981c-1.633,0.208-3.315,0.03-4.974,0.03
		C920.908,137.46,920.863,137.721,920.819,137.983z M923.723,131.706c1.456-0.443,4.11-0.884,6.408-2.037
		c3.578-1.795,5.369-5.023,4.666-9.031c-0.72-4.1-4.297-4.805-7.618-4.978c-2.409-0.126-4.991,0.295-7.274,1.102
		c-4.18,1.476-6.579,4.832-6.052,9.193C914.435,130.771,918.599,131.265,923.723,131.706z"/>
	<path fill="#F8F8F8" d="M1465.016,137.52c-2.746-0.504-7.53-1.084-12.141-2.314c-4.342-1.158-8.149-3.693-8.851-8.503
		c-0.665-4.563,2.201-7.815,5.617-10.48c6.363-4.962,14.038-6.089,21.634-6.346c5.719-0.193,11.606,0.753,17.205,2.086
		c4.191,0.997,8.286,3.473,8.824,8.449c0.536,4.961-2.327,8.39-6.381,11.002C1483.632,136.11,1475.466,137.127,1465.016,137.52z
		 M1468.753,131.528c7.134,0.086,12.441-3.782,12.703-9.257c0.191-4.005-3.14-6.597-8.71-6.777
		c-7.085-0.229-12.387,3.762-12.402,9.334C1460.331,129.484,1462.807,131.457,1468.753,131.528z"/>
	<path fill="#F8F8F8" d="M748.52,110.553c-0.577,2.263-0.937,3.676-1.428,5.602c-7.115,0-14.234-0.044-21.352,0.019
		c-3.442,0.031-3.441,0.122-3.752,4.403c6.617,0,13.208,0,20.126,0c-0.401,2.143-0.698,3.729-1.077,5.757
		c-6.115,0-12.083-0.152-18.032,0.116c-1.339,0.06-2.613,1.587-3.917,2.439c0.268,0.581,0.536,1.162,0.804,1.742
		c8.091,0,16.182,0,24.308,0c0.516,4.146-0.553,5.888-4.711,5.814c-12.458-0.221-24.923-0.08-37.928-0.08
		c1.909-8.259,3.619-15.995,5.574-23.67c0.227-0.891,1.796-2.042,2.754-2.053C722.515,110.507,735.144,110.553,748.52,110.553z"/>
	<path fill="#F8F8F8" d="M1187.215,132.654c-1.406,1.235-2.789,3.511-4.221,3.542c-12.97,0.278-25.949,0.163-39.395,0.163
		c2.1-8.821,4.088-17.176,6.102-25.638c13.583,0,26.882,0,40.181,0c0.028,5.364,0.016,5.415-4.832,5.449
		c-5.831,0.04-11.671-0.173-17.486,0.131c-1.508,0.079-2.936,1.679-4.4,2.581c0.224,0.511,0.449,1.022,0.674,1.533
		c6.616,0,13.233,0,20.46,0c-0.431,2.174-0.758,3.823-1.175,5.922c-6.194,0-12.165-0.161-18.116,0.12
		c-1.381,0.065-2.692,1.635-4.035,2.513c0.259,0.565,0.518,1.13,0.777,1.694c8.103,0,16.207,0,24.31,0
		C1186.445,131.327,1186.83,131.99,1187.215,132.654z"/>
	<path fill="#F8F8F8" d="M755.727,128.663c5.888,0.789,11.789-1.133,17.809,2.265c3.138,1.771,8.268,1.978,13.291-2.393
		c-4.377-0.911-7.441-1.578-10.518-2.183c-4.222-0.83-8.564-1.269-12.633-2.569c-1.868-0.597-4.304-2.723-4.487-4.376
		c-0.189-1.71,1.632-4.659,3.293-5.359c4.365-1.84,9.087-3.642,13.731-3.823c6.692-0.261,13.488,0.626,20.138,1.667
		c2.116,0.331,3.911,2.716,5.853,4.161c-0.279,0.662-0.559,1.323-0.838,1.985c-5.616-0.784-11.217-1.721-16.855-2.293
		c-3.229-0.327-6.519-0.059-9.781-0.059c-0.094,0.862-0.187,1.725-0.281,2.587c3.482,0.746,6.958,1.518,10.447,2.231
		c3.734,0.763,7.594,1.131,11.174,2.338c1.972,0.665,4.824,2.66,4.868,4.129c0.059,1.939-1.809,4.899-3.625,5.737
		c-4.137,1.91-8.717,3.739-13.173,3.884c-7.529,0.245-15.148-0.506-22.629-1.555c-2.441-0.342-4.569-2.914-6.84-4.467
		C755.024,129.936,755.375,129.3,755.727,128.663z"/>
	<path fill="#F8F8F8" d="M399.787,126.744c-5.271,7.964-12.865,9.594-20.173,10.177c-6.822,0.545-13.872-0.591-20.699-1.725
		c-4.29-0.713-8.268-3.03-9.05-8.053c-0.826-5.307,2.09-8.968,6.227-11.587c8.675-5.492,18.383-6.501,28.314-5.545
		c3.744,0.36,7.637,1.178,11.006,2.758c2.466,1.157,4.187,3.9,6.24,5.936c-0.33,0.483-0.659,0.967-0.989,1.45
		c-4.107,0-8.221,0.133-12.316-0.09c-1.073-0.059-2.218-1.081-3.105-1.903c-5.761-5.336-17.28-2.329-19.284,5.124
		c-1.002,3.728-0.248,7.064,4.089,7.47c3.657,0.343,8.432,0.876,10.935-1.02C386.812,125.318,392.824,127.223,399.787,126.744z"/>
	<path fill="#F8F8F8" d="M1348.713,120.169c-3.821,0-7.65,0.141-11.458-0.079c-1.279-0.074-2.745-0.804-3.717-1.685
		c-6.117-5.545-17.13-2.729-19.498,5.069c-1.105,3.638-0.195,6.686,3.734,7.18c3.64,0.458,7.813,0.687,11.076-0.643
		c8.259-3.366,8.106-3.739,18.714-2.085c-2.423,1.892-4.588,4.364-7.313,5.575c-11.259,5.004-22.91,5.145-34.543,1.397
		c-3.869-1.246-7.444-3.58-7.88-8.139c-0.449-4.704,1.813-8.356,5.849-10.791c12.699-7.662,26.128-7.999,39.76-3.286
		c2.516,0.87,4.301,3.855,6.424,5.863C1349.478,119.086,1349.095,119.628,1348.713,120.169z"/>
	<path fill="#F8F8F8" d="M828.057,128.331c-0.731,2.789-1.318,5.025-2.005,7.645c-5.11,0-10.33,0-15.939,0
		c1.804-7.605,3.509-15.163,5.469-22.655c0.284-1.085,1.801-2.653,2.729-2.64c11.259,0.156,22.541,0.243,33.752,1.151
		c2.655,0.215,6.462,2.927,7.288,5.332c1.466,4.272-2.188,7.413-5.98,8.275c-6.55,1.488-13.321,2.023-20.011,2.862
		C831.743,128.503,830.078,128.331,828.057,128.331z M829.297,122.7c5.647-0.937,11.382,2.119,15.096-5.492
		c-4.478-0.389-8.957-0.777-13.346-1.158C830.417,118.442,830.004,120.012,829.297,122.7z"/>
	<path fill="#F8F8F8" d="M545.805,120.161c-4.13,0-8.267,0.13-12.386-0.09c-1.046-0.056-2.13-1.111-3.031-1.896
		c-3.677-3.204-7.881-3.029-12.19-1.954c-4.119,1.027-6.579,3.829-7.379,7.902c-0.654,3.331,0.283,6.323,4.125,6.594
		c3.69,0.26,8.538,1.069,10.945-0.822c5.81-4.566,11.886-2.617,17.878-3.164c0.265,0.389,0.529,0.778,0.794,1.168
		c-2.305,1.847-4.351,4.268-6.959,5.443c-11.377,5.124-23.142,5.342-34.937,1.521c-3.863-1.252-7.292-3.361-7.82-8.041
		c-0.553-4.895,1.912-8.333,5.714-10.836c8.889-5.853,18.832-7.074,29.131-5.854c3.737,0.443,7.603,1.19,10.988,2.728
		c2.415,1.098,4.125,3.748,6.149,5.706C546.487,119.098,546.146,119.63,545.805,120.161z"/>
	<path fill="#F8F8F8" d="M1071.151,136.294c-5.287,0-11.231,1.812-14.197-0.389c-5.64-4.187-11.242-1.858-16.77-2.693
		c-0.955-0.144-2.387-0.267-2.899,0.269c-5.001,5.238-11.185,1.88-17.318,2.064c4.465-4.95,8.926-9.904,13.398-14.848
		c0.668-0.739,1.57-1.331,2.045-2.171c4.985-8.825,13.263-8.66,21.688-7.918c1.108,0.098,2.696,0.822,3.116,1.706
		C1063.895,120.057,1067.361,127.902,1071.151,136.294z M1040.877,128.005c4.86,0,8.048,0,11.933,0
		c-1.154-3.401-2.114-6.233-3.454-10.183C1046.324,121.463,1044.064,124.178,1040.877,128.005z"/>
	<path fill="#F8F8F8" d="M1239.431,135.279c7.08-7.658,13.973-15.506,21.387-22.826c1.623-1.602,5.092-1.373,7.728-1.905
		c7.711-1.556,12.298,1.408,14.617,9.091c1.656,5.487,4.509,10.612,7.126,16.581c-5.31,0-11.521,1.894-14.42-0.399
		c-5.845-4.623-11.691-1.432-17.332-2.613c-0.619-0.13-1.599-0.164-1.93,0.198c-4.904,5.373-11.13,1.94-16.653,3.059
		C1239.779,136.07,1239.605,135.674,1239.431,135.279z M1260.738,127.903c4.442,0,7.6,0,11.469,0
		c-1.296-3.627-2.34-6.549-3.754-10.507C1265.532,121.374,1263.38,124.305,1260.738,127.903z"/>
	<path fill="#F8F8F8" d="M341.615,136.293c-4.793,0-10.634,1.779-13.456-0.383c-5.315-4.073-10.559-2.235-15.812-2.573
		c-1.994-0.128-4.041,1.542-6.15,1.987c-2.67,0.563-5.42,0.8-8.148,1.009c-1.977,0.152-3.975,0.03-6.982,0.03
		c1.255-1.827,1.969-3.191,2.978-4.283c5.52-5.974,11.273-11.743,16.612-17.872c2.541-2.918,5.391-3.355,8.99-3.851
		c8.677-1.197,13.492,1.967,15.849,10.374c1.373,4.897,4.043,9.43,6.104,14.138C341.719,135.141,341.615,135.512,341.615,136.293z
		 M320.39,117.268c-2.894,4.059-5.057,7.093-7.68,10.773c4.461,0,7.51,0,11.306,0C322.807,124.45,321.798,121.454,320.39,117.268z"
		/>
	<path fill="#F8F8F8" d="M601.359,136.356c-4.99,0-8.97,0.07-12.945-0.047c-1.047-0.031-2.097-0.593-3.109-1.001
		c-1.659-0.669-3.243-1.86-4.939-2.029c-3.291-0.329-6.638-0.133-9.96-0.085c-1.146,0.017-2.779-0.201-3.356,0.44
		c-4.842,5.372-10.86,1.483-16.782,1.811c5.633-6.182,11.894-11.915,16.737-18.664c5.724-7.977,13.477-6.165,21.042-6.121
		c0.838,0.005,2.036,1.078,2.445,1.948C594.076,120.223,597.517,127.905,601.359,136.356z M583.081,128.22
		c-1.265-3.666-2.321-6.727-3.773-10.935c-2.889,4.065-5.03,7.079-7.77,10.935C575.941,128.22,578.847,128.22,583.081,128.22z"/>
	<path fill="#F8F8F8" d="M290.42,110.709c0.711,4.683-1.18,5.949-5.267,5.904c-10.343-0.114-10.345,0.044-12.784,10.134
		c-2.326,9.621-2.326,9.621-12.325,9.615c-1.81-0.001-3.62,0-5.861,0c1.412-6.624,2.733-12.822,4.217-19.787
		c-5.248,0-9.786,0-14.906,0c0.687-2.449,1.158-4.131,1.645-5.866C260.331,110.709,275.251,110.709,290.42,110.709z"/>
	<path fill="#F8F8F8" d="M437.44,136.168c-5.296,0-10.24,0-15.763,0c1.429-6.484,2.793-12.674,4.3-19.508c-5.041,0-9.593,0-14.174,0
		c-0.447-4.29,0.434-6.296,4.932-6.213c13.767,0.253,27.542,0.092,41.414,0.092c0.421,4.633-1.338,6.206-5.863,6.095
		c-10.295-0.253-10.29-0.037-12.562,9.971C439.002,129.792,438.208,132.964,437.44,136.168z"/>
	<path fill="#F8F8F8" d="M1405.25,116.24c-5.521,0.535-11.743-0.637-14.811,1.943c-2.965,2.492-2.677,8.851-3.824,13.509
		c-0.354,1.439-0.73,2.872-1.133,4.453c-5.281,0-10.378,0-15.721,0c1.425-6.487,2.795-12.722,4.305-19.593
		c-5.215,0-9.643,0-14.096,0c-0.587-4.314,0.436-6.184,4.889-6.104c13.783,0.246,27.573,0.09,41.9,0.09
		C1406.172,112.76,1405.722,114.459,1405.25,116.24z"/>
	<path fill="#F8F8F8" d="M634.28,110.555c-1.609,7.128-2.992,13.252-4.534,20.082c7.644,0,14.987,0,22.339,0
		c0.392,4.42-1.079,5.881-5.029,5.804c-11.273-0.221-22.553-0.078-34.713-0.078c1.996-8.53,3.818-16.507,5.809-24.442
		c0.153-0.609,1.492-1.283,2.297-1.305C624.9,110.489,629.357,110.555,634.28,110.555z"/>
	<path fill="#F8F8F8" d="M882.348,136.161c-5.601,0-10.394,0-15.876,0c1.867-8.17,3.6-16.024,5.54-23.827
		c0.188-0.755,1.634-1.663,2.528-1.698c4.462-0.174,8.934-0.079,13.831-0.079C886.302,119.357,884.341,127.688,882.348,136.161z"/>
	<path fill="#F8F8F8" d="M464.604,136.354c1.931-8.388,3.663-16.257,5.659-24.06c0.202-0.791,1.971-1.623,3.047-1.671
		c4.295-0.191,8.603-0.079,13.226-0.079c-1.801,7.932-3.411,15.514-5.344,23.015c-0.291,1.13-2.031,2.581-3.191,2.667
		C473.735,136.547,469.431,136.354,464.604,136.354z"/>
	<path fill="#F8F8F8" d="M1412.616,136.355c2.144-8.985,4.129-17.3,6.122-25.652c5.371,0,10.324,0,15.871,0
		c-1.854,8.096-3.571,15.934-5.542,23.707c-0.213,0.839-1.873,1.807-2.903,1.857
		C1421.867,136.475,1417.554,136.355,1412.616,136.355z"/>
	<path fill="#F8F8F8" d="M1692.208,166.86c-3.684,3.699,1.174,9.01-4.264,12.763c0-7.834,0-14.226,0-21.312
		c8.833,1.011,5.622,10.611,10.437,14.001c5.028-3.173,1.435-13.135,10.278-13.858c1.95,11.237,0.859,19.238-2.902,19.664
		c0-3.16,0-6.283,0-9.405c-0.422-0.157-0.844-0.314-1.266-0.47c-1.007,2.023-1.918,4.103-3.054,6.052
		c-0.849,1.458-1.988,2.747-2.998,4.111c-0.99-1.325-2.175-2.55-2.927-3.999C1694.318,172.104,1693.411,169.653,1692.208,166.86z"/>
	<path fill="#F8F8F8" d="M1668.854,158.905c5.521,0,11.043,0,16.564,0c0.133,0.393,0.266,0.785,0.399,1.178
		c-1.038,0.487-2.119,1.461-3.106,1.374c-3.598-0.317-4.195,1.618-4.083,4.547c0.12,3.154,0.214,6.331-0.052,9.467
		c-0.099,1.163-1.251,2.237-1.922,3.352c-0.39-0.236-0.781-0.471-1.171-0.707c0-3.731-0.134-7.468,0.04-11.191
		c0.16-3.428-0.225-6.008-4.677-5.498c-0.762,0.087-1.635-0.795-2.456-1.229C1668.546,159.767,1668.7,159.336,1668.854,158.905z"/>
	<path fill="#050505" d="M1115.214,424.948c2.884-12.17,5.416-23.512,8.287-34.766c2.399-9.405,2.577-9.477,12.445-9.319
		c6.793,0.109,13.609,0.298,20.362,0.981c13.438,1.36,18.582,10.231,14.33,23.205c-4.132,12.607-13.308,18.652-25.701,19.734
		C1135.402,425.615,1125.736,424.948,1115.214,424.948z M1136.193,412.964c9.925,3.493,17.44-5.263,17.467-14.655
		c0.013-4.496-3.525-5.579-7.186-5.998c-3.43-0.392-5.981,0.015-6.566,4.559C1139.218,402.222,1137.515,407.444,1136.193,412.964z"
		/>
	<path fill="#020202" d="M719.312,426.267c-2.432-0.199-5.135-0.125-7.703-0.679c-13.96-3.016-19.141-16.128-11.732-29.428
		c8.185-14.691,31.042-21.096,45.637-12.788c7.485,4.261,10.045,14.717,5.735,24.221
		C745.073,421.209,733.571,425.896,719.312,426.267z M715.248,405.108c0.035,8.189,4.573,11.328,10.632,8.778
		c5.949-2.505,8.559-7.627,9.189-13.661c0.703-6.737-5.459-10.712-11.51-7.57C717.902,395.593,715.396,400.53,715.248,405.108z"/>
	<path fill="#020202" d="M598.265,394.524c-6.251-1.139-12.85,2.342-18.999-2.469c-1.542-1.206-4.83-0.18-7.316-0.18
		c-0.127,0.659-0.255,1.318-0.382,1.978c2.45,0.888,4.863,1.905,7.36,2.633c3.161,0.922,6.502,1.312,9.571,2.455
		c9.562,3.559,11.114,14.116,3.184,20.778c-8.586,7.212-27.384,9.146-37.319,3.84c-5.596-2.989-7.119-6.171-5.887-13.029
		c5.009,0,10.126-0.065,15.237,0.072c0.751,0.02,1.57,0.909,2.199,1.551c3.815,3.897,6.765,4.056,12.816-0.287
		c-3.854-1.259-6.915-2.333-10.022-3.25c-2.209-0.652-4.512-0.988-6.717-1.651c-4.43-1.332-8.53-3.206-9.105-8.559
		c-0.625-5.81,1.578-10.815,6.483-13.639c10.077-5.801,20.98-6.841,32.067-3.184C597.407,383.552,599.205,387.235,598.265,394.524z"
		/>
	<path fill="#070707" d="M878.383,380.85c-2.681,11.434-5.114,21.812-7.7,32.841c7.632,0,14.854,0,22.907,0
		c-0.963,4.178-1.757,7.618-2.539,11.011c-13.8,0-27.172,0-41.186,0c1.173-4.88,2.26-9.299,3.294-13.732
		c1.988-8.522,3.986-17.043,5.898-25.582c0.742-3.314,2.079-5.122,6.041-4.65C869.299,381.237,873.605,380.85,878.383,380.85z"/>
	<path fill="#020202" d="M1011,424.744c-6.212,0-11.826,0-18.118,0c3.524-14.779,6.939-29.106,10.412-43.671
		c5.909,0,11.658,0,18.051,0C1017.846,395.844,1014.437,410.234,1011,424.744z"/>
	<path fill="#F8F8F8" d="M1468.753,131.528c-5.946-0.071-8.422-2.044-8.409-6.699c0.015-5.572,5.317-9.563,12.402-9.334
		c5.57,0.18,8.901,2.772,8.71,6.777C1481.194,127.746,1475.887,131.614,1468.753,131.528z"/>
	<path fill="#F8F8F8" d="M320.39,117.268c1.409,4.186,2.417,7.182,3.626,10.773c-3.796,0-6.845,0-11.306,0
		C315.332,124.361,317.496,121.327,320.39,117.268z"/>
	<path fill="#F8F8F8" d="M583.081,128.22c-4.234,0-7.14,0-11.543,0c2.74-3.856,4.881-6.87,7.77-10.935
		C580.76,121.493,581.816,124.554,583.081,128.22z"/>
	<path fill="#F8F8F8" d="M1136.193,412.964c1.322-5.52,3.026-10.742,3.715-16.094c0.585-4.544,3.137-4.951,6.566-4.559
		c3.66,0.418,7.198,1.501,7.186,5.998C1153.633,407.701,1146.118,416.457,1136.193,412.964z"/>
	<path fill="#F8F8F8" d="M715.248,405.108c0.149-4.578,2.654-9.515,8.312-12.453c6.051-3.142,12.213,0.833,11.51,7.57
		c-0.63,6.033-3.24,11.156-9.189,13.661C719.821,416.437,715.283,413.297,715.248,405.108z"/>
</g>
</svg>
